<svg width="40" height="40" viewBox="0 0 44 44" fill="none" xmlns="http://www.w3.org/2000/svg">
          <path d="M10.1868 17.2143H26.5385C27.1487 17.2143 27.6434 16.7196 27.6434 16.1094C27.6434 15.4992 27.1487 15.0045 26.5385 15.0045H10.1868C9.57661 15.0045 9.08191 15.4992 9.08191 16.1094C9.08191 16.7196 9.57661 17.2143 10.1868 17.2143Z" fill="#B32017" />
          <path d="M10.1868 21.6339H26.5385C27.1487 21.6339 27.6434 21.1392 27.6434 20.529C27.6434 19.9188 27.1487 19.4241 26.5385 19.4241H10.1868C9.57661 19.4241 9.08191 19.9188 9.08191 20.529C9.08191 21.1392 9.57661 21.6339 10.1868 21.6339Z" fill="#B32017" />
          <path d="M20.2906 23.8438H10.1868C9.57661 23.8438 9.08191 24.3385 9.08191 24.9487C9.08191 25.5589 9.57661 26.0536 10.1868 26.0536H20.2906C20.9008 26.0536 21.3955 25.5589 21.3955 24.9487C21.3955 24.3385 20.9008 23.8438 20.2906 23.8438Z" fill="#B32017" />
          <path d="M31.3492 23.1C27.3938 23.1 24.1758 26.3174 24.1758 30.2721C24.1758 31.4537 24.7881 32.4596 25.4971 33.6244C26.4154 35.1328 27.4562 36.8426 27.4562 39.4556C27.4562 41.3934 28.8801 43.0049 30.7367 43.2995V43.3914C30.7668 44.2031 31.9319 44.2025 31.9617 43.3914V43.2996C33.8183 43.0049 35.2422 41.3935 35.2422 39.4556C35.2422 36.8426 36.283 35.1329 37.2013 33.6244C37.9103 32.4597 38.5226 31.4537 38.5226 30.2721C38.5226 26.3174 35.3047 23.1 31.3492 23.1ZM31.3492 42.1231C30.0889 42.1231 29.0298 41.2446 28.7522 40.068H33.9461C33.6686 41.2446 32.6096 42.1231 31.3492 42.1231ZM36.1548 32.9876C35.2698 34.4414 34.1836 36.2257 34.0344 38.8432H32.1922L34.2766 32.4292C34.4309 31.9722 33.9919 31.515 33.529 31.6502L31.3492 32.26L29.1694 31.6502C28.952 31.5895 28.7187 31.6531 28.5623 31.816C28.406 31.9789 28.352 32.2146 28.4218 32.4292L30.5061 38.8432H28.664C28.5148 36.2257 27.4286 34.4415 26.5436 32.9876C25.9051 31.9388 25.4008 31.1103 25.4008 30.2721C25.6997 22.3932 36.9998 22.3951 37.2976 30.2722C37.2976 31.1103 36.7933 31.9387 36.1548 32.9876ZM31.3492 37.4737L29.9401 33.1377L31.1841 33.4857C31.2921 33.5159 31.4062 33.5159 31.5143 33.4857L32.7583 33.1377L31.3492 37.4737Z" fill="#7F1710" />
          <path d="M23.0885 34.3335L22.22 34.8349C21.927 35.0041 21.8267 35.3786 21.9958 35.6715C22.1397 35.9207 22.4978 36.0888 22.8324 35.8956L23.7008 35.3942C23.9938 35.225 24.0941 34.8505 23.925 34.5576C23.7559 34.2647 23.3813 34.1644 23.0885 34.3335Z" fill="#7F1710" />
          <path d="M39.6107 26.2106L40.4792 25.7091C40.7721 25.5399 40.8724 25.1654 40.7033 24.8725C40.5341 24.5796 40.1596 24.4792 39.8667 24.6484L38.9983 25.1498C38.7054 25.319 38.605 25.6935 38.7742 25.9864C38.918 26.2356 39.2762 26.4038 39.6107 26.2106Z" fill="#7F1710" />
          <path d="M40.4791 34.835L39.6107 34.3335C39.3178 34.1643 38.9432 34.2647 38.7742 34.5577C38.605 34.8506 38.7054 35.2251 38.9983 35.3942L39.8668 35.8957C40.1953 36.0855 40.5566 35.9256 40.7033 35.6715C40.8724 35.3786 40.7721 35.0041 40.4791 34.835Z" fill="#7F1710" />
          <path d="M22.7769 30.2721C22.7769 29.9339 22.5027 29.6597 22.1645 29.6597H21.5085C20.6969 29.6898 20.6975 30.8547 21.5085 30.8845H22.1645C22.5027 30.8845 22.7769 30.6103 22.7769 30.2721Z" fill="#7F1710" />
          <path d="M41.1912 29.6597H40.5353C39.7237 29.6898 39.7243 30.8547 40.5353 30.8845H41.1912C42.0029 30.8544 42.0023 29.6895 41.1912 29.6597Z" fill="#7F1710" />
          <path d="M36.1548 32.9876C35.2698 34.4414 34.1836 36.2257 34.0344 38.8432H32.1922L34.2766 32.4292C34.4309 31.9722 33.9919 31.515 33.529 31.6502L31.3492 32.26L29.1694 31.6502C28.952 31.5895 28.7187 31.6531 28.5623 31.816C28.406 31.9789 28.352 32.2146 28.4218 32.4292L30.5061 38.8432H28.664C28.5148 36.2257 27.4286 34.4415 26.5436 32.9876C25.9051 31.9388 25.4008 31.1103 25.4008 30.2721C25.6997 22.3932 36.9998 22.3951 37.2976 30.2722C37.2976 31.1103 36.7933 31.9387 36.1548 32.9876Z" fill="#7F1710" />
          <path fillRule="evenodd" clipRule="evenodd" d="M32.9153 4.24773C32.9153 3.63753 32.4206 3.14282 31.8104 3.14282H12.7373C12.4442 3.14282 12.1632 3.25928 11.956 3.46649L4.51408 10.9092C4.30695 11.1164 4.19049 11.3975 4.19049 11.6905V39.7522C4.19049 40.3624 4.6852 40.8571 5.2954 40.8571H23.531L22.8753 38.6472L6.40031 38.6473V12.7945H12.7373C13.3475 12.7945 13.8422 12.2998 13.8422 11.6896V5.35264H30.7055V20.35H32.9153V4.24773ZM11.6324 10.5847V6.9155L7.96354 10.5847H11.6324Z" fill="#7F1710" />
        </svg>