<svg width="40" height="40" viewBox="0 0 44 44" fill="none" xmlns="http://www.w3.org/2000/svg">
          <g clipPath="url(#clip0_1169_4208)">
            <path d="M42.7109 38.8437H25.6454C25.2564 37.7468 24.3859 36.8763 23.289 36.4873V33.664C29.0986 33.4554 34.8906 31.8296 34.8906 28.5312V5.15624C34.8906 1.61356 28.2085 0 22 0C15.7914 0 9.10936 1.61356 9.10936 5.15624V28.5312C9.10936 31.8296 14.9014 33.4554 20.7109 33.6641V36.4874C19.614 36.8764 18.7435 37.7469 18.3545 38.8438H1.28906C0.577155 38.8438 0 39.4209 0 40.1328C0 40.8447 0.577155 41.4219 1.28906 41.4219H18.3545C18.8866 42.9222 20.3195 44 22 44C23.6805 44 25.1133 42.9222 25.6454 41.4219H42.7109C43.4228 41.4219 43.9999 40.8447 43.9999 40.1328C43.9999 39.4209 43.4228 38.8437 42.7109 38.8437ZM22 2.57812C28.8188 2.57812 32.3124 4.50294 32.3124 5.15624C32.3124 5.76322 28.966 7.73436 22 7.73436C15.1811 7.73436 11.6875 5.80954 11.6875 5.15624C11.6875 4.54926 15.034 2.57812 22 2.57812ZM11.6875 8.41541C14.2005 9.7043 18.1892 10.3125 22 10.3125C25.8109 10.3125 29.7995 9.7043 32.3124 8.41541V12.9765C32.3124 13.5835 28.966 15.5547 22 15.5547C15.1811 15.5547 11.6875 13.6298 11.6875 12.9765V8.41541ZM11.6875 16.2357C14.2005 17.5246 18.1892 18.1328 22 18.1328C25.8109 18.1328 29.7995 17.5246 32.3124 16.2357V20.7109C32.3124 21.3179 28.966 23.289 22 23.289C15.1811 23.289 11.6875 21.3642 11.6875 20.7109V16.2357ZM11.6875 28.5312V23.9701C14.2005 25.259 18.1892 25.8671 22 25.8671C25.8109 25.8671 29.7995 25.259 32.3124 23.9701V28.5312C32.3124 29.1382 28.966 31.1093 22 31.1093C15.1812 31.1093 11.6875 29.1845 11.6875 28.5312ZM22 41.4218C21.2892 41.4218 20.7109 40.8435 20.7109 40.1327C20.7109 39.422 21.2892 38.8437 22 38.8437C22.7107 38.8437 23.289 39.422 23.289 40.1327C23.289 40.8435 22.7107 41.4218 22 41.4218Z" fill="#7F1710" />
            <path fillRule="evenodd" clipRule="evenodd" d="M42.7109 38.8438H25.6454C25.2564 37.7469 24.3859 36.8764 23.289 36.4874V33.6641L20.7109 33.6642V36.4874C19.614 36.8765 18.7435 37.7469 18.3545 38.8439H1.28906C0.577155 38.8439 0 39.421 0 40.1329C0 40.8448 0.577155 41.422 1.28906 41.422H18.3545C18.8866 42.9223 20.3195 44.0001 22 44.0001C23.6805 44.0001 25.1133 42.9223 25.6454 41.422H42.7109C43.4228 41.422 43.9999 40.8448 43.9999 40.1329C43.9999 39.421 43.4228 38.8438 42.7109 38.8438ZM20.7109 40.1328C20.7109 40.8436 21.2892 41.4219 22 41.4219C22.7107 41.4219 23.289 40.8436 23.289 40.1328C23.289 39.422 22.7107 38.8438 22 38.8438C21.2892 38.8438 20.7109 39.422 20.7109 40.1328Z" fill="#B32017" />
          </g>
          <defs>
            <clipPath id="clip0_1169_4208">
              <rect width="40" height="40" fill="/product-registration/database" />
            </clipPath>
          </defs>
        </svg>