<svg width="40" height="40" viewBox="0 0 44 44" fill="none" xmlns="http://www.w3.org/2000/svg">
          <path d="M10.1868 17.2142H26.5384C27.1486 17.2142 27.6434 16.7195 27.6434 16.1093C27.6434 15.4991 27.1486 15.0044 26.5384 15.0044H10.1868C9.57658 15.0044 9.08188 15.4991 9.08188 16.1093C9.08188 16.7195 9.57658 17.2142 10.1868 17.2142Z" fill="#B32017" />
          <path d="M10.1868 21.6339H26.5384C27.1486 21.6339 27.6434 21.1392 27.6434 20.529C27.6434 19.9188 27.1486 19.4241 26.5384 19.4241H10.1868C9.57658 19.4241 9.08188 19.9188 9.08188 20.529C9.08188 21.1392 9.57658 21.6339 10.1868 21.6339Z" fill="#B32017" />
          <path d="M20.2905 23.8438H10.1868C9.57658 23.8438 9.08188 24.3385 9.08188 24.9487C9.08188 25.5589 9.57658 26.0536 10.1868 26.0536H20.2905C20.9007 26.0536 21.3954 25.5589 21.3954 24.9487C21.3954 24.3385 20.9008 23.8438 20.2905 23.8438Z" fill="#B32017" />
          <path fillRule="evenodd" clipRule="evenodd" d="M32.9153 4.24773C32.9153 3.63753 32.4206 3.14282 31.8104 3.14282H12.7373C12.4442 3.14282 12.1632 3.25928 11.956 3.46649L4.51411 10.9092C4.30698 11.1164 4.19052 11.3975 4.19052 11.6905V39.7522C4.19052 40.3624 4.68523 40.8571 5.29543 40.8571H15.5182L15.3002 38.6473L6.40034 38.6473V12.7945H12.7373C13.3475 12.7945 13.8422 12.2998 13.8422 11.6896V5.35264H30.7055V22H32.9153V4.24773ZM11.6324 10.5847V6.9155L7.96357 10.5847H11.6324Z" fill="#7F1710" />
          <path d="M31.7165 35.6275V41.2186L40.6994 32.6336L31.7165 24.2V29.3112C20.4559 29.3112 17.6006 41.8 17.6006 41.8C20.7883 36.169 25.6044 35.6275 31.7165 35.6275Z" fill="#7F1710" />
        </svg>