<svg width="40" height="40" viewBox="0 0 44 44" fill="none" xmlns="http://www.w3.org/2000/svg">
          <path fillRule="evenodd" clipRule="evenodd" d="M32.9154 4.24773C32.9154 3.63753 32.4207 3.14282 31.8104 3.14282H12.7373C12.4442 3.14282 12.1632 3.25928 11.956 3.46649L4.51414 10.9092C4.30701 11.1164 4.19055 11.3975 4.19055 11.6905V39.7522C4.19055 40.3624 4.68526 40.8571 5.29546 40.8571H25.7409L24.2001 38.6472L6.40037 38.6473V12.7945H12.7373C13.3475 12.7945 13.8422 12.2998 13.8422 11.6896V5.35264H30.7055V22H32.9154V4.24773ZM11.6324 10.5847V6.9155L7.9636 10.5847H11.6324Z" fill="#7F1710" />
          <path d="M32.4968 38.995L35.1616 36.3536L32.4968 33.7122L31.5151 34.694L32.5202 35.6991C32.0838 35.7147 31.6594 35.6445 31.2467 35.4887C30.8341 35.3329 30.4638 35.0913 30.1359 34.7641C29.8243 34.4524 29.5865 34.094 29.4225 33.6888C29.2586 33.2837 29.1769 32.8785 29.1776 32.4733C29.1776 32.2084 29.2128 31.9435 29.2832 31.6786C29.3536 31.4137 29.4509 31.1565 29.5749 30.9072L28.5464 29.8787C28.2815 30.2683 28.0867 30.6813 27.9621 31.1176C27.8374 31.5539 27.7751 31.998 27.7751 32.45C27.7751 33.0421 27.8919 33.6265 28.1257 34.2031C28.3594 34.7797 28.7023 35.2939 29.1542 35.7458C29.6061 36.1978 30.1126 36.5368 30.6736 36.7631C31.2346 36.9894 31.8111 37.11 32.4033 37.125L31.5151 38.0132L32.4968 38.995ZM36.3537 35.0212C36.6186 34.6316 36.8134 34.2187 36.938 33.7823C37.0627 33.346 37.1251 32.9019 37.1251 32.45C37.1251 31.8578 37.0119 31.2694 36.7856 30.6847C36.5594 30.1 36.2206 29.582 35.7693 29.1307C35.318 28.6794 34.8075 28.3444 34.2378 28.1256C33.668 27.9068 33.0877 27.7977 32.4968 27.7983L33.3851 26.8867L32.4033 25.905L29.7386 28.5463L32.4033 31.1877L33.3851 30.206L32.3566 29.1775C32.7773 29.1775 33.2058 29.2594 33.6422 29.4234C34.0785 29.5873 34.4525 29.8248 34.7642 30.1358C35.0758 30.4469 35.3136 30.8053 35.4776 31.2111C35.6415 31.6169 35.7232 32.022 35.7226 32.4266C35.7226 32.6915 35.6876 32.9564 35.6178 33.2213C35.548 33.4862 35.4505 33.7434 35.3252 33.9927L36.3537 35.0212ZM32.4501 41.8C31.1566 41.8 29.9411 41.5544 28.8036 41.0632C27.666 40.572 26.6764 39.906 25.8349 39.0651C24.9934 38.2242 24.3274 37.2347 23.8368 36.0965C23.3463 34.9583 23.1007 33.7428 23.1001 32.45C23.0994 31.1572 23.345 29.9417 23.8368 28.8035C24.3286 27.6653 24.9947 26.6757 25.8349 25.8348C26.6752 24.994 27.6647 24.3279 28.8036 23.8367C29.9424 23.3456 31.1579 23.1 32.4501 23.1C33.7422 23.1 34.9577 23.3456 36.0966 23.8367C37.2354 24.3279 38.2249 24.994 39.0652 25.8348C39.9054 26.6757 40.5718 27.6653 41.0642 28.8035C41.5566 29.9417 41.8019 31.1572 41.8 32.45C41.7982 33.7428 41.5526 34.9583 41.0633 36.0965C40.574 37.2347 39.9079 38.2242 39.0652 39.0651C38.2224 39.906 37.2329 40.5723 36.0966 41.0641C34.9602 41.5559 33.7447 41.8012 32.4501 41.8Z" fill="#7F1710" />
          <path d="M10.1868 17.2142H26.5385C27.1487 17.2142 27.6434 16.7195 27.6434 16.1093C27.6434 15.4991 27.1487 15.0044 26.5385 15.0044H10.1868C9.57661 15.0044 9.08191 15.4991 9.08191 16.1093C9.08191 16.7195 9.57661 17.2142 10.1868 17.2142Z" fill="#B32017" />
          <path d="M10.1868 21.6339H26.5385C27.1487 21.6339 27.6434 21.1392 27.6434 20.529C27.6434 19.9188 27.1487 19.4241 26.5385 19.4241H10.1868C9.57661 19.4241 9.08191 19.9188 9.08191 20.529C9.08191 21.1392 9.57661 21.6339 10.1868 21.6339Z" fill="#B32017" />
          <path d="M20.2906 23.8438H10.1868C9.57661 23.8438 9.08191 24.3385 9.08191 24.9487C9.08191 25.5589 9.57661 26.0536 10.1868 26.0536H20.2906C20.9008 26.0536 21.3955 25.5589 21.3955 24.9487C21.3955 24.3385 20.9008 23.8438 20.2906 23.8438Z" fill="#B32017" />
        </svg>