<svg width="32" height="33" viewBox="0 0 32 33" fill="none" xmlns="http://www.w3.org/2000/svg">
<path d="M16.7358 19.2313C17.0571 19.2313 17.3176 19.4918 17.3176 19.8131V22.1404C17.3176 22.4617 17.0571 22.7222 16.7358 22.7222H10.3357C10.0144 22.7222 9.75391 22.4617 9.75391 22.1404V19.8131C9.75391 19.4918 10.0144 19.2313 10.3357 19.2313H16.7358ZM21.5341 19.4302C21.7456 19.1884 22.1133 19.1636 22.3551 19.375C22.5969 19.5866 22.6216 19.9542 22.4102 20.1961L20.3738 22.5234C20.2678 22.6445 20.116 22.7163 19.9551 22.7216C19.7942 22.727 19.6383 22.6656 19.5244 22.5518L18.3608 21.3881L18.321 21.3438C18.1346 21.1153 18.1477 20.7784 18.3608 20.5654C18.5738 20.3524 18.9106 20.3392 19.1392 20.5256L19.1835 20.5654L19.9074 21.2893L21.5341 19.4302ZM10.9175 21.5586H16.1539V20.3949H10.9175V21.5586ZM16.7358 13.4131C17.0571 13.4131 17.3176 13.6736 17.3176 13.9949V16.3222C17.3176 16.6435 17.0571 16.904 16.7358 16.904H10.3357C10.0144 16.904 9.75391 16.6435 9.75391 16.3222V13.9949C9.75391 13.6736 10.0144 13.4131 10.3357 13.4131H16.7358ZM20.979 13.5835C21.2062 13.3563 21.5745 13.3563 21.8017 13.5835C22.0289 13.8108 22.0289 14.1791 21.8017 14.4063L21.0494 15.1585L21.8017 15.9108L21.8415 15.9551C22.0278 16.1837 22.0147 16.5205 21.8017 16.7336C21.5887 16.9466 21.2518 16.9597 21.0233 16.7733L20.979 16.7336L20.2267 15.9813L19.4744 16.7336C19.2472 16.9608 18.8789 16.9608 18.6517 16.7336C18.4245 16.5063 18.4245 16.138 18.6517 15.9108L19.4039 15.1585L18.6517 14.4063L18.6119 14.362C18.4255 14.1334 18.4387 13.7966 18.6517 13.5835C18.8789 13.3563 19.2472 13.3563 19.4744 13.5835L20.2267 14.3358L20.979 13.5835ZM10.9175 15.7404H16.1539V14.5767H10.9175V15.7404Z" fill="#B32017"/>
<path fill-rule="evenodd" clip-rule="evenodd" d="M26.4923 3.70384C26.4923 3.26005 26.1325 2.90027 25.6888 2.90027H11.8174C11.6042 2.90027 11.3999 2.98496 11.2492 3.13566L5.8369 8.54857C5.68626 8.69927 5.60156 8.90364 5.60156 9.11675V29.5253C5.60156 29.9691 5.96135 30.3288 6.40513 30.3288H25.6923C26.1342 30.3288 26.4923 29.9707 26.4923 29.5288V3.70384ZM11.0138 8.31254V5.64404L8.3456 8.31254H11.0138ZM7.20871 9.91968V28.7217H24.8852V4.50741H12.621V9.11611C12.621 9.55989 12.2612 9.91968 11.8174 9.91968H7.20871Z" fill="#7F1710"/>
</svg>
